<svg width="81" height="117" viewBox="0 0 81 117" fill="none" xmlns="http://www.w3.org/2000/svg">
<path fill-rule="evenodd" clip-rule="evenodd" d="M20.4939 1.08247C20.7129 0.994174 20.9477 0.94873 21.1848 0.94873H59.717C59.9541 0.94873 60.1889 0.994174 60.4079 1.08247L74.0311 6.57354C74.4735 6.75186 74.825 7.09388 75.0082 7.52437L80.6511 20.781C80.8344 21.2115 80.8344 21.6952 80.6511 22.1257L75.0082 35.3823C74.825 35.8128 74.4735 36.1548 74.0311 36.3331L64.435 40.201L74.0311 44.0689C74.4735 44.2473 74.825 44.5893 75.0082 45.0198L80.6511 58.2764C80.8344 58.7069 80.8344 59.1906 80.6511 59.6211L75.0082 72.8777C74.825 73.3082 74.4735 73.6502 74.0311 73.8285L60.4079 79.3196C59.9655 79.4979 59.4685 79.4979 59.0261 79.3196L45.4029 73.8285C44.9605 73.6502 44.609 73.3082 44.4258 72.8777L42.2564 67.7813V77.4475C42.2564 77.4893 42.2549 77.5308 42.2519 77.572C42.2549 77.6131 42.2564 77.6546 42.2564 77.6964V96.4441C42.2564 96.6749 42.2097 96.9033 42.1189 97.1165L36.476 110.373C36.2928 110.804 35.9413 111.146 35.4989 111.324L21.8757 116.815C21.4333 116.993 20.9363 116.993 20.4939 116.815L6.87069 111.324C6.42829 111.146 6.07681 110.804 5.89356 110.373L0.250655 97.1165C0.0674087 96.686 0.0674087 96.2023 0.250655 95.7718L5.89356 82.5152C6.07681 82.0847 6.42829 81.7426 6.87069 81.5643L16.7757 77.572L6.87069 73.5796C6.42829 73.4013 6.07681 73.0592 5.89356 72.6287L0.250655 59.3721C0.0674087 58.9416 0.0674087 58.4579 0.250655 58.0274L5.89356 44.7708C6.07681 44.3403 6.42829 43.9983 6.87069 43.82L16.158 40.0766L6.87069 36.3331C6.42829 36.1548 6.07681 35.8128 5.89356 35.3823L0.250655 22.1257C0.0674087 21.6952 0.0674087 21.2115 0.250655 20.781L5.89356 7.52437C6.07681 7.09388 6.42829 6.75186 6.87069 6.57354L20.4939 1.08247ZM20.9602 41.9443L10.749 46.0601L38.6454 73.2059V41.9579H21.1848C21.1095 41.9579 21.0345 41.9534 20.9602 41.9443ZM42.2564 41.9579V50.1162L44.4258 45.0198C44.609 44.5893 44.9605 44.2473 45.4029 44.0689L50.6402 41.9579H42.2564ZM59.3579 38.4441H42.2564V6.94719L70.1528 34.093L59.3579 38.4441ZM72.7062 31.6084L77.0288 21.4533L71.9583 9.54139L59.3579 4.46255H44.8097L72.7062 31.6084ZM38.6454 4.46255H21.5439L10.749 8.81365L38.6454 35.9595V4.46255ZM35.8362 38.1952H21.1848C21.1095 38.1952 21.0345 38.1998 20.9602 38.2088L8.94348 33.3653L3.87295 21.4533L8.19562 11.2983L35.8362 38.1952ZM59.717 42.1027L49.2812 46.3091L72.7062 69.1038L77.0288 58.9487L71.9583 47.0368L59.717 42.1027ZM70.1528 71.5884L46.7278 48.7937L42.4051 58.9487L47.4757 70.8607L59.717 75.7948L70.1528 71.5884ZM36.0921 75.6906L8.19562 48.5447L3.87296 58.6998L8.94348 70.6117L21.5439 75.6906H36.0921ZM21.5439 79.4533H38.6454V96.0947L34.174 106.599L10.749 83.8044L21.5439 79.4533ZM8.19562 86.2891L3.87296 96.4441L8.94348 108.356L21.1848 113.29L31.6206 109.084L8.19562 86.2891Z" fill="#F5F5FF"/>
</svg>
